<?xml version="1.0" encoding="UTF-8"?>
<svg width="25px" height="25px" viewBox="0 0 25 25" version="1.1" xmlns="http://www.w3.org/2000/svg" xmlns:xlink="http://www.w3.org/1999/xlink">
    <!-- Generator: Sketch 42 (36781) - http://www.bohemiancoding.com/sketch -->
    <title>user-female</title>
    <desc>Created with Sketch.</desc>
    <defs></defs>
    <g id="Page-1" stroke="none" stroke-width="1" fill="none" fill-rule="evenodd">
        <g id="Filled" transform="translate(-350.000000, -400.000000)" fill="#000000">
            <g id="user-female" transform="translate(350.000000, 400.000000)">
                <path d="M18.4121,20.5645 C18.9391,20.7515 19.4731,20.9575 19.9851,21.2115 C17.9721,22.9445 15.3581,24.0005 12.5001,24.0005 C9.6411,24.0005 7.0281,22.9445 5.0151,21.2115 C5.5271,20.9575 6.0601,20.7515 6.5881,20.5645 C8.1331,20.0185 9.3721,19.5815 9.5081,17.8215 C7.0451,17.5335 5.4151,16.9995 5.3431,16.9755 C5.1901,16.9245 5.0721,16.8035 5.0231,16.6515 C4.9751,16.4985 5.0041,16.3315 5.0991,16.2025 C5.1131,16.1835 6.5001,14.2725 6.5001,11.0015 C6.5001,5.9915 8.7431,3.0015 12.5001,3.0015 C16.2571,3.0015 18.5001,5.9915 18.5001,11.0015 C18.5001,14.2725 19.8871,16.1835 19.9011,16.2025 C19.9961,16.3315 20.0241,16.4985 19.9761,16.6515 C19.9281,16.8035 19.8091,16.9245 19.6571,16.9755 C19.5851,16.9995 17.9551,17.5335 15.4921,17.8215 C15.6281,19.5815 16.8671,20.0185 18.4121,20.5645 M12.5001,0.0005 C5.6071,0.0005 0.0001,5.6075 0.0001,12.5005 C0.0001,19.3925 5.6071,25.0005 12.5001,25.0005 C19.3921,25.0005 25.0001,19.3925 25.0001,12.5005 C25.0001,5.6075 19.3921,0.0005 12.5001,0.0005" id="Fill-1"></path>
            </g>
        </g>
    </g>
</svg>