<?xml version="1.0" encoding="UTF-8"?>
<svg width="25px" height="25px" viewBox="0 0 25 25" version="1.1" xmlns="http://www.w3.org/2000/svg" xmlns:xlink="http://www.w3.org/1999/xlink">
    <!-- Generator: Sketch 42 (36781) - http://www.bohemiancoding.com/sketch -->
    <title>user-male</title>
    <desc>Created with Sketch.</desc>
    <defs></defs>
    <g id="Page-1" stroke="none" stroke-width="1" fill="none" fill-rule="evenodd">
        <g id="Filled" transform="translate(-300.000000, -400.000000)" fill="#000000">
            <g id="user-male" transform="translate(300.000000, 400.000000)">
                <path d="M12.5,24 C9.642,24 7.028,22.944 5.015,21.212 C5.527,20.957 6.061,20.751 6.588,20.564 C8.226,19.986 9.52,19.529 9.52,17.491 C9.52,16.529 8.998,15.682 8.493,14.862 C8.054,14.149 7.64,13.477 7.64,12.781 C7.64,12.269 7.728,11.925 7.799,11.648 C7.905,11.234 7.958,11.025 7.612,10.335 C6.789,8.7 7.82,5.453 10.198,3.995 C12.497,2.587 14.213,2.666 15.58,4.249 C16.018,4.312 16.557,4.561 17.004,5.286 C17.871,6.693 17.939,9.239 17.387,10.336 C17.042,11.025 17.095,11.234 17.201,11.648 C17.272,11.925 17.36,12.269 17.36,12.781 C17.36,13.477 16.946,14.149 16.507,14.862 C16.002,15.682 15.48,16.529 15.48,17.491 C15.48,19.529 16.774,19.986 18.412,20.564 C18.939,20.751 19.473,20.957 19.985,21.212 C17.972,22.944 15.358,24 12.5,24 M12.5,0 C5.607,0 0,5.607 0,12.5 C0,19.393 5.607,25 12.5,25 C19.393,25 25,19.393 25,12.5 C25,5.607 19.393,0 12.5,0" id="Page-1"></path>
            </g>
        </g>
    </g>
</svg>